<?xml version="1.0" encoding="utf-8"?>
<!-- Generator: Adobe Illustrator 23.1.1, SVG Export Plug-In . SVG Version: 6.00 Build 0)  -->
<svg version="1.1" id="Layer_1" xmlns="http://www.w3.org/2000/svg" xmlns:xlink="http://www.w3.org/1999/xlink" x="0px" y="0px"
	 viewBox="0 0 16 16" style="enable-background:new 0 0 16 16;" xml:space="preserve">
<style type="text/css">
	.st0{fill:#FFFFFF;}
</style>
<path class="st0" d="M1.3,8.3c0-2,1.6-3.7,3.7-3.7h7c1.5,0,2.7,1.2,2.7,2.7S13.5,10,12,10H6.3c-0.9,0-1.7-0.7-1.7-1.7
	s0.7-1.7,1.7-1.7h5V8H6.3c-0.4,0-0.4,0.7,0,0.7H12c0.7,0,1.3-0.6,1.3-1.3S12.7,6,12,6H5C3.7,6,2.7,7,2.7,8.3s1,2.3,2.3,2.3h6.3V12H5
	C3,12,1.3,10.4,1.3,8.3z"/>
</svg>
