<?xml version="1.0" encoding="utf-8"?>
<!-- Generator: Adobe Illustrator 23.1.1, SVG Export Plug-In . SVG Version: 6.00 Build 0)  -->
<svg version="1.1" id="Capa_1" xmlns="http://www.w3.org/2000/svg" xmlns:xlink="http://www.w3.org/1999/xlink" x="0px" y="0px"
	 viewBox="0 0 512 512" style="enable-background:new 0 0 512 512;" xml:space="preserve">
<g>
	<path d="M440,81.7H168c-4.4,0-8-3.6-8-8s3.6-8,8-8h272c4.4,0,8,3.6,8,8S444.4,81.7,440,81.7z"/>
</g>
<g>
	<path d="M440,177.7h-16c-4.4,0-8-3.6-8-8s3.6-8,8-8h16c4.4,0,8,3.6,8,8S444.4,177.7,440,177.7z"/>
</g>
<g>
	<path d="M440,225.7c-2.1,0-4.2-0.9-5.7-2.4s-2.3-3.6-2.3-5.6c0-2.1,0.9-4.2,2.3-5.7s3.6-2.3,5.7-2.3s4.2,0.9,5.7,2.3
		c1.5,1.5,2.3,3.6,2.3,5.7c0,2.1-0.9,4.2-2.3,5.6C444.2,224.8,442.1,225.7,440,225.7z"/>
</g>
<g>
	<path d="M440,129.7H296c-4.4,0-8-3.6-8-8s3.6-8,8-8h144c4.4,0,8,3.6,8,8S444.4,129.7,440,129.7z"/>
</g>
<g>
	<path d="M264,129.7h-96c-4.4,0-8-3.6-8-8s3.6-8,8-8h96c4.4,0,8,3.6,8,8S268.4,129.7,264,129.7z"/>
</g>
<g>
	<path d="M456,350.3c-4.2,0-8.2-1.6-11.3-4.7l-10.3-10.3c-3.1-3.1-3.1-8.2,0-11.3c3.1-3.1,8.2-3.1,11.3,0l10.3,10.3l0-53.4
		c0-3.9,2.8-7.2,6.7-7.9c19-3.2,33.3-20.2,33.3-39.4v-176c0-22.1-17.9-40-40-40H152c-22.1,0-40,17.9-40,40v80c0,4.4-3.6,8-8,8
		s-8-3.6-8-8v-80c0-30.9,25.1-56,56-56h304c30.9,0,56,25.1,56,56v176c0,25.1-16.5,46.6-40,53.6v47.1c0,6.5-3.9,12.3-9.9,14.8
		C460.1,349.9,458,350.3,456,350.3z"/>
</g>
<g>
	<path d="M344,241.7H72c-4.4,0-8-3.6-8-8s3.6-8,8-8h272c4.4,0,8,3.6,8,8S348.4,241.7,344,241.7z"/>
</g>
<g>
	<path d="M344,337.7H240c-4.4,0-8-3.6-8-8s3.6-8,8-8h104c4.4,0,8,3.6,8,8S348.4,337.7,344,337.7z"/>
</g>
<g>
	<path d="M208,337.7H72c-4.4,0-8-3.6-8-8s3.6-8,8-8h136c4.4,0,8,3.6,8,8S212.4,337.7,208,337.7z"/>
</g>
<g>
	<path d="M344,385.7H72c-4.4,0-8-3.6-8-8s3.6-8,8-8h272c4.4,0,8,3.6,8,8S348.4,385.7,344,385.7z"/>
</g>
<g>
	<path d="M120,289.7H72c-4.4,0-8-3.6-8-8s3.6-8,8-8h48c4.4,0,8,3.6,8,8S124.4,289.7,120,289.7z"/>
</g>
<g>
	<path d="M344,289.7H152c-4.4,0-8-3.6-8-8s3.6-8,8-8h192c4.4,0,8,3.6,8,8S348.4,289.7,344,289.7z"/>
</g>
<g>
	<path d="M56,510.3c-2.1,0-4.1-0.4-6.1-1.2c-6-2.5-9.9-8.3-9.9-14.8v-47.1c-23.5-7-40-28.5-40-53.6v-176c0-30.9,25.1-56,56-56h304
		c30.9,0,56,25.1,56,56v176c0,30.9-25.1,56-56,56H123.3l-56,56C64.2,508.7,60.2,510.3,56,510.3z M56,177.7c-22.1,0-40,17.9-40,40
		v176c0,19.2,14.3,36.2,33.3,39.4c3.8,0.7,6.7,4,6.7,7.9v53.4l58.3-58.3c1.5-1.5,3.5-2.3,5.7-2.3h240c22.1,0,40-17.9,40-40v-176
		c0-22.1-17.9-40-40-40L56,177.7L56,177.7z"/>
</g>
</svg>
