<?xml version="1.0" encoding="utf-8"?>
<!-- Generator: Adobe Illustrator 23.1.1, SVG Export Plug-In . SVG Version: 6.00 Build 0)  -->
<svg version="1.1" id="Capa_1" xmlns="http://www.w3.org/2000/svg" xmlns:xlink="http://www.w3.org/1999/xlink" x="0px" y="0px"
	 viewBox="0 0 416 348.7" style="enable-background:new 0 0 416 348.7;" xml:space="preserve">
<g>
	<path d="M344,80.1H72c-4.4,0-8-3.6-8-8s3.6-8,8-8h272c4.4,0,8,3.6,8,8S348.4,80.1,344,80.1z"/>
</g>
<g>
	<path d="M344,176.1H240c-4.4,0-8-3.6-8-8s3.6-8,8-8h104c4.4,0,8,3.6,8,8S348.4,176.1,344,176.1z"/>
</g>
<g>
	<path d="M208,176.1H72c-4.4,0-8-3.6-8-8s3.6-8,8-8h136c4.4,0,8,3.6,8,8S212.4,176.1,208,176.1z"/>
</g>
<g>
	<path d="M344,224.1H72c-4.4,0-8-3.6-8-8s3.6-8,8-8h272c4.4,0,8,3.6,8,8S348.4,224.1,344,224.1z"/>
</g>
<g>
	<path d="M120,128.1H72c-4.4,0-8-3.6-8-8s3.6-8,8-8h48c4.4,0,8,3.6,8,8S124.4,128.1,120,128.1z"/>
</g>
<g>
	<path d="M344,128.1H152c-4.4,0-8-3.6-8-8s3.6-8,8-8h192c4.4,0,8,3.6,8,8S348.4,128.1,344,128.1z"/>
</g>
<g>
	<path d="M56,348.7c-2.1,0-4.1-0.4-6.1-1.2c-6-2.5-9.9-8.3-9.9-14.8v-47.1c-23.5-7-40-28.5-40-53.6V56C0,25.1,25.1,0,56,0h304
		c30.9,0,56,25.1,56,56v176c0,30.9-25.1,56-56,56H123.3l-56,56C64.2,347.1,60.2,348.7,56,348.7z M56,16.1c-22.1,0-40,17.9-40,40v176
		c0,19.2,14.3,36.2,33.3,39.4c3.8,0.7,6.7,4,6.7,7.9v53.4l58.3-58.3c1.5-1.5,3.5-2.3,5.7-2.3h240c22.1,0,40-17.9,40-40v-176
		c0-22.1-17.9-40-40-40L56,16.1L56,16.1z"/>
</g>
</svg>
