<?xml version="1.0" encoding="utf-8"?>
<!-- Generator: Adobe Illustrator 23.1.1, SVG Export Plug-In . SVG Version: 6.00 Build 0)  -->
<svg version="1.1" xmlns="http://www.w3.org/2000/svg" xmlns:xlink="http://www.w3.org/1999/xlink" x="0px" y="0px"
	 viewBox="0 0 32 32" style="enable-background:new 0 0 32 32;" xml:space="preserve">
<style type="text/css">
	.st0{fill:#FFFFFF;}
	.st1{display:none;}
	.st2{display:inline;}
</style>
<g id="Layer_1">
	<path class="st0" d="M14.1,26.1h9.6l3.8,3.9V16.4c0-0.5-0.4-1-1-1H14.1c-0.5,0-1,0.4-1,1v8.8C13.1,25.7,13.6,26.1,14.1,26.1z"/>
	<path class="st0" d="M19.8,3.9C19.8,2.9,19,2,17.9,2h-7.7L4.5,7.8v11.7c0,1.1,0.9,1.9,1.9,1.9h4.3v-7.6c0-0.3,0-1,0-1s0.7,0,1,0
		h8.2L19.8,3.9z M11.2,8.8H5.9l5.3-5.3V8.8z"/>
</g>
<g id="Layer_2" class="st1">
	<rect x="12.2" y="18.4" class="st2" width="2" height="1"/>
	<rect x="15.5" y="14.9" transform="matrix(-1.836970e-16 1 -1 -1.836970e-16 31.8902 -1.1099)" class="st2" width="2" height="1"/>
</g>
</svg>
